<?xml version="1.0" encoding="UTF-8"?>
<svg width="32" height="32" viewBox="0 0 32 32" xmlns="http://www.w3.org/2000/svg">
  <!-- Background -->
  <rect width="32" height="32" rx="6" fill="#7cb342"/>
  
  <!-- CTI Logo Design -->
  <g transform="translate(4, 6)">
    <!-- C -->
    <path d="M2 4 L2 16 L8 16 L8 12 L6 12 L6 8 L8 8 L8 4 Z" fill="white" stroke="white" stroke-width="0.5"/>
    
    <!-- T -->
    <path d="M10 4 L10 6 L12 6 L12 16 L14 16 L14 6 L16 6 L16 4 Z" fill="white" stroke="white" stroke-width="0.5"/>
    
    <!-- I -->
    <path d="M18 4 L18 6 L20 6 L20 14 L18 14 L18 16 L24 16 L24 14 L22 14 L22 6 L24 6 L24 4 Z" fill="white" stroke="white" stroke-width="0.5"/>
  </g>
</svg>
